<?xml version="1.0" encoding="utf-8"?>
<!-- Generator: Adobe Illustrator 23.0.0, SVG Export Plug-In . SVG Version: 6.00 Build 0)  -->
<svg version="1.1" id="Layer_1" xmlns="http://www.w3.org/2000/svg" xmlns:xlink="http://www.w3.org/1999/xlink" x="0px" y="0px"
	 viewBox="0 0 200 200" style="enable-background:new 0 0 200 200;" xml:space="preserve">
<style type="text/css">
	.st0{fill:#FFFFFF;}
	.st10k1{font-family:'Barrio';}
	.st10k2{font-size:61.4227px;}
</style>
<g>
	<g>
		<path fill="current" d="M193.3,178.1c0,3.3,0,6.6,0,10c-7,0-14,0-20.9,0c-10-2-20.1-4.1-30.1-6c-10.6-2-21-2.2-30.9,3.6c-1.8,1.1-5,0.2-7.5-0.3
			c-6-1-12-3.3-17.9-3.1c-12.4,0.4-24.8,2.2-37.1,3.3c-9.9,0.9-19.6,0-28.5-4.7c-4.1-2.2-5.7-5.4-5.2-10.3c0.5-4.9,0.7-10,0.3-14.9
			c-1.6-22.4-1.3-44.8,1.4-67.1c0.8-6.6,1.9-7.3,8.3-5.5c1-3.3,3-3.3,5.6-1.7c3.2,2,6.5,3.9,10.5,6.3c-0.5-3.2-1.1-5.4-1.2-7.7
			c-0.1-1.7,0.6-3.4,0.9-5c1.6,0.6,3.5,0.8,4.7,1.8c6.9,5.3,14.2,9.7,23,11.3C79,90.1,88.3,94,94.5,104c4.5-7.8,10.6-12.7,18.6-14.9
			c10.4-2.8,19.6-7.2,25.2-17.1c1.9-3.3,4.4-2.6,5.9,0.6c1.4,3.1,2.5,6.4,3.7,9.5c5,0.4,11.2-5.9,13.5,3.5c2.1-0.4,3.9-0.6,5.6-1.1
			c4.4-1.2,6.3,0.5,7.2,4.8c4.6,20.8,9.6,41.6,14.3,62.4C190.4,160.5,191.7,169.3,193.3,178.1z M153,147.4
			c-4.4-24.7-1.8-49.5-12.3-73.4c-5.7,11.1-15.1,15.3-25.4,18.2c-2.7,0.8-5.3,1.9-7.8,3.2c-8.4,4.5-11.9,11.8-10.6,21.2
			c1,6.9,1.7,13.8,2.6,20.7c0.7,5.1,1.5,10.2,2.3,15.2c0.9,5.1,1.9,10.1,3,16.5c6.4-15.3,17.7-20.3,31.9-20.8
			C141.9,148.1,147,147.7,153,147.4z M100.8,169.1c-2.6-18.6-5.5-36.8-7.6-55c-1.3-11.4-7.9-17.7-18.1-20.5
			c-10.9-3-21.9-5.3-31.3-14c0.8,6,1.7,10.9,2,15.7c0.9,16.4,1.7,32.8,2.3,49.2c0.1,3.4,1.3,5.1,4.7,5.7c6.2,1.2,12.4,2.4,18.5,4.1
			C82,157.2,93.1,159.2,100.8,169.1z M112.8,176.1c1-1.3,1.9-2.5,2.8-3.7c12.8-17,29.8-19.7,47.3-7.6c3.8,2.6,7.7,5,11.5,7.6
			c0.6-0.3,1.2-0.5,1.8-0.8c-11.1-28-16.3-57.3-18.7-87.6c-3.5,0.9-5.8,1.4-7.5,1.8c2,19.5,3.8,38.5,5.8,57.4
			c0.6,6.2-0.4,7.6-6.7,8.1c-6,0.4-11.9,0.5-17.9,1.2c-9.3,1-16.5,5.5-21,14C108,170.3,107.2,173.8,112.8,176.1z M115.1,177.5
			c0.3,0.6,0.7,1.2,1,1.9c13-6.1,26.1-4.7,39.4-1.3c7.7,2,15.6,3.1,23.4,4.5c4,0.7,6-0.5,5.1-5.1c-1.2-5.8-1.9-11.8-3.1-17.6
			c-4.7-21.7-9.6-43.3-14.5-64.9c-0.3-1.3-2.2-2.2-3.3-3.3c0.9,24,4.9,46.4,12.9,68c1.4,3.8,2.2,8,2.6,12.1c0.5,4.8-1.3,5.9-5.6,3.5
			c-5.2-2.9-10.1-6.3-15.1-9.7c-9.4-6.4-19.1-6.8-28.5-0.8C124.1,168.3,119.8,173.2,115.1,177.5z M30.2,85.5
			c1.1,6.4,2.2,12.4,3.1,18.4c2.2,15.7,4.9,31.5,3.3,47.5c-0.4,3.6,0.5,6,3.7,7.2c8.6,3.3,17.1,7.3,26,9.1c11,2.2,22.4,2.7,32.7,7.8
			c0.1,0.1,0.5-0.3,0.7-0.5c-2.2-5.6-6.3-10-12.9-11.9c-12-3.6-24.3-6.6-36.4-9.7c-3.5-0.9-5.4-2.7-5.5-6.5
			c-0.6-15.4-1.5-30.8-1.9-46.2c-0.2-5.6-1.1-10-7.1-11.9C33.9,88,32.3,86.7,30.2,85.5z M92.1,176.3c0.2-0.1,0.3-0.3,0.5-0.4
			c-7.6-1.3-15.1-3-22.7-3.8c-11.6-1.3-22.3-4.8-32.2-10.9c-3.4-2.1-5.3-4.8-4.7-9c2.6-18.9-2.2-37.3-4.2-55.8
			c-0.1-1.1-1.2-2.2-1.8-3.2c-0.5,0.1-1,0.3-1.5,0.4c0,9.1,0,18.1,0,27.2c0.1,15.9,0.7,31.8,0.1,47.7c-0.2,5.1,1.3,7.3,5.4,9
			c9.1,3.7,18.5,4.4,28.3,2.9C70.1,178.7,81.1,177.6,92.1,176.3z M26.1,179.1c-4.1-2.3-4.5-5.7-4.2-9.9c0.6-10.6,1-21.2,1-31.8
			c-0.1-13.9-0.6-27.8-1-41.7c-0.1-3.5,0.2-6.9,4.8-8c-1.8-0.5-3.6-1-5.6-1.6c-0.4,1.5-0.9,2.6-0.9,3.7c-0.7,17.2-1.4,34.4-1.8,51.6
			c-0.2,9.3,0.9,18.6,0.4,27.8C18.5,175.1,20.6,178,26.1,179.1z M169.1,87.7c5.2,32.6,15.7,63.6,19.5,96.1c0.5-2.7,1-5.5,0.5-8.1
			c-3.1-15-6.3-30-9.6-45c-2.8-13.1-5.7-26.1-8.6-39.2C170.5,90.2,169.7,89,169.1,87.7z"/>
		<path class="st0" d="M193.3,178.1c-1.6-8.7-2.9-17.6-4.9-26.2c-4.6-20.8-9.6-41.6-14.3-62.4c-1-4.3-2.9-6-7.2-4.8
			c-1.7,0.5-3.6,0.7-5.6,1.1c-2.3-9.4-8.5-3.1-13.5-3.5c-1.2-3.1-2.2-6.4-3.7-9.5c-1.5-3.2-4-3.9-5.9-0.6
			c-5.6,9.9-14.8,14.3-25.2,17.1c-8,2.2-14.1,7.1-18.6,14.9C88.3,94,79,90.1,68.6,88.2c-8.7-1.6-16.1-6-23-11.3
			c-1.3-1-3.1-1.2-4.7-1.8c-0.3,1.7-1,3.4-0.9,5c0.1,2.3,0.7,4.5,1.2,7.7c-4-2.4-7.3-4.3-10.5-6.3c-2.6-1.7-4.6-1.7-5.6,1.7
			c-6.3-1.8-7.4-1.1-8.3,5.5c-2.7,22.3-3,44.7-1.4,67.1c0.4,4.9,0.2,10-0.3,14.9c-0.5,4.8,1.1,8.1,5.2,10.3c9,4.7,18.6,5.6,28.5,4.7
			c12.4-1.1,24.7-2.9,37.1-3.3c5.9-0.2,11.9,2.1,17.9,3.1c2.5,0.4,5.7,1.3,7.5,0.3c9.9-5.8,20.3-5.6,30.9-3.6
			c10.1,1.9,20.1,4,30.1,6c-53.2,0-106.3,0-159.5,0c0-39.9,0-79.7,0-119.6c60.1,0,120.3,0,180.4,0
			C193.3,105,193.3,141.5,193.3,178.1z"/>
		<path class="st0" d="M153,147.4c-6,0.3-11.1,0.7-16.2,0.9c-14.2,0.5-25.5,5.5-31.9,20.8c-1.2-6.4-2.2-11.4-3-16.5
			c-0.9-5.1-1.6-10.2-2.3-15.2c-0.9-6.9-1.6-13.8-2.6-20.7c-1.3-9.3,2.2-16.6,10.6-21.2c2.5-1.3,5.1-2.5,7.8-3.2
			c10.3-2.9,19.7-7.1,25.4-18.2C151.3,97.8,148.6,122.7,153,147.4z"/>
		<path class="st0" d="M100.8,169.1c-7.6-9.9-18.8-11.9-29.5-14.8c-6.1-1.6-12.3-2.9-18.5-4.1c-3.4-0.6-4.6-2.4-4.7-5.7
			c-0.6-16.4-1.4-32.8-2.3-49.2c-0.3-4.9-1.2-9.7-2-15.7c9.4,8.7,20.4,10.9,31.3,14c10.1,2.8,16.8,9.1,18.1,20.5
			C95.3,132.4,98.2,150.5,100.8,169.1z"/>
		<path class="st0" d="M112.8,176.1c-5.6-2.3-4.9-5.7-2.8-9.7c4.5-8.5,11.7-12.9,21-14c5.9-0.7,11.9-0.7,17.9-1.2
			c6.3-0.5,7.4-1.9,6.7-8.1c-1.9-18.9-3.8-37.9-5.8-57.4c1.7-0.4,4-1,7.5-1.8c2.4,30.3,7.6,59.6,18.7,87.6c-0.6,0.3-1.2,0.5-1.8,0.8
			c-3.8-2.5-7.8-4.9-11.5-7.6c-17.4-12.1-34.5-9.4-47.3,7.6C114.7,173.6,113.8,174.8,112.8,176.1z"/>
		<path class="st0" d="M115.1,177.5c4.7-4.2,9-9.2,14.3-12.6c9.4-6,19.1-5.6,28.5,0.8c4.9,3.4,9.9,6.7,15.1,9.7
			c4.2,2.4,6,1.3,5.6-3.5c-0.4-4.1-1.2-8.2-2.6-12.1c-8-21.6-12-44-12.9-68c1.1,1.1,3,2,3.3,3.3c5,21.6,9.8,43.2,14.5,64.9
			c1.3,5.8,1.9,11.8,3.1,17.6c1,4.6-1.1,5.8-5.1,5.1c-7.8-1.4-15.7-2.6-23.4-4.5c-13.3-3.4-26.4-4.8-39.4,1.3
			C115.7,178.7,115.4,178.1,115.1,177.5z"/>
		<path class="st0" d="M30.2,85.5c2.1,1.2,3.7,2.6,5.5,3.2c6,1.9,7,6.3,7.1,11.9c0.4,15.4,1.3,30.8,1.9,46.2
			c0.1,3.8,2.1,5.6,5.5,6.5c12.2,3.2,24.4,6.2,36.4,9.7c6.6,2,10.7,6.4,12.9,12c-0.2,0.2-0.6,0.6-0.7,0.5c-10.3-5-21.7-5.6-32.7-7.8
			c-8.9-1.8-17.4-5.9-26-9.1c-3.1-1.2-4-3.6-3.7-7.2c1.7-16-1.1-31.7-3.3-47.5C32.4,97.9,31.3,91.9,30.2,85.5z"/>
		<path class="st0" d="M92.1,176.3c-11,1.3-22,2.4-32.9,4c-9.7,1.4-19.1,0.7-28.3-2.9c-4.1-1.6-5.6-3.9-5.4-9
			c0.6-15.9,0-31.8-0.1-47.7c0-9.1,0-18.1,0-27.2c0.5-0.1,1-0.3,1.5-0.4c0.6,1.1,1.7,2.1,1.8,3.2c2,18.6,6.8,36.9,4.2,55.8
			c-0.6,4.2,1.3,6.9,4.7,9c9.9,6,20.6,9.6,32.2,10.9c7.6,0.8,15.1,2.5,22.7,3.8C92.4,176,92.2,176.2,92.1,176.3z"/>
		<path class="st0" d="M26.1,179.1c-5.5-1.1-7.6-4-7.3-9.8c0.5-9.2-0.6-18.5-0.4-27.8c0.4-17.2,1.1-34.4,1.8-51.6
			c0-1.1,0.5-2.2,0.9-3.7c2,0.6,3.8,1.1,5.6,1.6c-4.6,1.1-4.9,4.5-4.8,8c0.3,13.9,0.9,27.8,1,41.7c0,10.6-0.4,21.2-1,31.8
			C21.6,173.3,22,176.8,26.1,179.1z"/>
		<path class="st0" d="M169.1,87.7c0.6,1.3,1.4,2.5,1.7,3.8c2.9,13.1,5.8,26.1,8.6,39.2c3.2,15,6.5,30,9.6,45
			c0.5,2.6,0.1,5.4-0.5,8.1C184.8,151.3,174.2,120.3,169.1,87.7z"/>
	</g>
</g>
<text transform="matrix(1 0 0 1 4.4531 61.9658)" class="st10k1 st10k2">10 000</text>
</svg>
