<svg version="1.1" id="Layer_1" xmlns="http://www.w3.org/2000/svg" xmlns:xlink="http://www.w3.org/1999/xlink" x="0px" y="0px"
	 viewBox="0 0 200 200" style="enable-background:new 0 0 200 200;" xml:space="preserve">
<style type="text/css">
	.st0{fill:#FFFFFF;}
	.st1k1{font-family:'Barrio';}
	.st1k2{font-size:49.5363px;}
</style>
<g>
	<g>
		<path class="st0" d="M131.7,10.5c17,0,33.9,0,50.9,0c0,60.5,0,121,0,181.6c-54.2,0-108.4,0-162.6,0c0-45.9,0-91.8,0-137.7
			c4.3,15.1,8.8,30.2,12.9,45.3c0.9,3.4,1,7.2,0.5,10.7c-1.9,13.3-4.4,26.5-6.2,39.8c-0.7,5.6-2.8,12.4,5.9,14.5
			c0.3,0.1,0.6,0.4,0.7,0.7c3.1,6.8,7.7,11.4,15.7,11.8c0.8,0,1.8,1.7,2.3,2.7c1.6,3.6,4.2,5.7,8.2,4.7c2.7-0.6,4.2,0,5.6,2.5
			c1.7,3,4.2,4.2,8,3.1c9.6-3,19.4-5.7,29.1-8.3c1.8-0.5,3.9-0.7,5.8-0.4c8.2,1.3,16.3,3.1,24.5,4.2c5,0.7,10.8,2.9,13.9-3.9
			c0.3-0.6,2.2-0.3,3.2-0.7c4.8-2,9.7-4.2,11.6-9.4c1-2.7,2.2-4.1,5-4.5c3.9-0.5,5.5-3,6-6.8c0.2-1.5,1.3-3.4,2.6-4
			c6.4-3.5,7.3-4.6,5.4-11.8c-3.7-14.1-7.9-28.1-11.6-42.2c-0.9-3.4-1.2-7.2-0.7-10.6c1.8-13.3,3.2-26.8,6.4-39.7
			c2.8-11.5-6.3-15.4-11.3-21.9c-2.7-3.5-6.6-6.4-11.8-5.8c-0.6,0.1-1.2-2.2-2.1-3c-1.7-1.6-3.9-4.4-5.5-4.1
			c-4.4,0.6-7.2-0.4-9.3-4.2C134.2,11.8,132.7,11.3,131.7,10.5z"/>
		<path fill="current" d="M131.7,10.5c1,0.8,2.5,1.4,3.1,2.4c2.1,3.8,5,4.8,9.3,4.2c1.6-0.2,3.8,2.5,5.5,4.1c0.9,0.8,1.5,3.1,2.1,3
			c5.2-0.5,9.1,2.3,11.8,5.8c5,6.5,14.1,10.4,11.3,21.9c-3.2,13-4.6,26.4-6.4,39.7c-0.5,3.5-0.2,7.2,0.7,10.6
			c3.7,14.1,7.9,28.1,11.6,42.2c1.9,7.2,1,8.3-5.4,11.8c-1.3,0.7-2.4,2.6-2.6,4c-0.5,3.8-2.1,6.2-6,6.8c-2.7,0.4-3.9,1.8-5,4.5
			c-1.9,5.2-6.8,7.4-11.6,9.4c-1,0.4-2.9,0.1-3.2,0.7c-3.1,6.9-8.9,4.6-13.9,3.9c-8.2-1.1-16.3-2.9-24.5-4.2
			c-1.9-0.3-3.9-0.1-5.8,0.4c-9.7,2.7-19.5,5.4-29.1,8.3c-3.7,1.2-6.3-0.1-8-3.1c-1.4-2.5-3-3.1-5.6-2.5c-4.1,0.9-6.6-1.1-8.2-4.7
			c-0.5-1.1-1.5-2.7-2.3-2.7c-8-0.4-12.6-5.1-15.7-11.8c-0.1-0.3-0.4-0.6-0.7-0.7c-8.7-2.1-6.6-9-5.9-14.5
			c1.7-13.3,4.3-26.5,6.2-39.8c0.5-3.5,0.4-7.3-0.5-10.7C28.7,84.5,24.3,69.5,20,54.4c0-1,0-2,0-3c0.5-0.9,0.7-2.1,1.4-2.5
			c4.6-2.8,6.7-7.7,9.8-11.4c3.3-3.9,8.2-7.1,11.9-11.5c2.4-2.9,7.2-3.6,10.9-5.5c0.7-0.3,1.3-1,1.7-1.7c1.8-3.3,4.7-3.9,8.1-3.3
			c3.6,0.6,7.2,1.1,10.8,1.6c7.4,1.1,15,4.1,22,3c11.3-1.8,22.1-6.3,33.1-9.7C130.3,10.5,131,10.5,131.7,10.5z M178.9,149.6
			c-0.5-2.5-0.8-3.6-1-4.7c-10.8-42.4-24.8-83.7-41.7-124.1c-3.2-7.6-3.4-7.5-11.5-5.4c-2.2,0.6-4.5,1.2-6.7,1.9
			c-15.2,5-30.5,9.8-45.7,15c-15,5.1-29.9,10.7-44.8,15.9c-4,1.4-5,3.6-3.8,7.6c6.2,20.4,11.7,41,18.5,61.2
			c7.2,21.5,15.4,42.7,23.5,63.8c3,7.8,3.5,7.8,11.4,5.4c17.5-5.5,35-11,52.4-16.9c15-5.1,29.9-10.5,44.8-16.1
			C176.1,152.6,177.6,150.7,178.9,149.6z M58.1,171.6c-6.6-18.7-13-36.6-19.4-54.6c-0.8,3.5-1.1,6.8-1.2,10.1
			c-0.3,12.3-0.4,24.5-0.7,36.8c-0.1,3.4,1.2,5.2,4.8,5.6C47,170,52.4,170.8,58.1,171.6z M143.6,30c6.6,18.7,13,36.6,19.3,54.4
			c1.3-12.6,1.7-25,2-37.4c0.1-3.6,0-7.3-0.4-10.9c-0.2-1.3-1.5-3.3-2.6-3.5C155.9,31.6,149.9,30.9,143.6,30z M82.9,25.8
			c-0.1-0.8-0.2-1.5-0.3-2.3c-9.7,0-19.5-0.1-29.2,0.1c-1.7,0-4.3,1.5-4.8,2.9c-1.3,3.4-1.6,7.1-2.4,11.2
			C59.1,33.5,71,29.7,82.9,25.8z M118.9,175.8c0.1,0.3,0.2,0.7,0.4,1c7.3,0.4,14.6,1,21.9,1.1c12.5,0.3,12.6,0.1,14.2-12.3
			c0.1-0.4-0.2-0.9-0.3-1.5C142.9,168.1,130.9,171.9,118.9,175.8z M169.6,39.9c-0.8,0.3-1.5,0.6-2.3,0.9c0,12.9,0,25.9,0,38.8
			c1.9-11.3,3.6-22.7,4.9-34.2C172.4,43.8,170.5,41.8,169.6,39.9z M34.3,161.2c0-13.1,0-26.1,0-40.3c-0.8,5.3-1.4,9.5-2,13.8
			c-0.9,6.9-1.9,13.8-2.7,20.7C29.4,158.1,29.1,161.3,34.3,161.2z M53.2,174.4c2,7.9,2.7,8.4,9.1,6.8
			C61.4,176.2,59.5,172.7,53.2,174.4z M139.4,20.6c2.5,7.6,2.9,7.9,9,6.3C146.4,19.5,145.9,19.1,139.4,20.6z M43.2,35.9
			c-3.8,2-11-1.1-11.2,7.9C36,40.4,42.2,42.2,43.2,35.9z M169.3,158.8c-10.5,2.8-10.8,3-10.8,6.9
			C168.4,164.6,169.2,164.1,169.3,158.8z M120.4,179.6c11.3,4,20.6,4.6,22.5,1.4C135.8,180.5,128.8,180.1,120.4,179.6z M58.8,19
			c0,0.5,0,1.1,0,1.6c6.9,0.4,13.7,0.8,20.6,1.3C72.6,20.4,65.9,17,58.8,19z"/>
		<path class="st0" d="M129.7,10.5c-11,3.4-21.9,7.9-33.1,9.7c-7,1.1-14.6-1.9-22-3c-3.6-0.6-7.2-1.1-10.8-1.6
			c-3.4-0.6-6.3,0-8.1,3.3c-0.4,0.7-1,1.3-1.7,1.7c-3.7,1.8-8.6,2.6-10.9,5.5c-3.7,4.4-8.6,7.6-11.9,11.5c-3.1,3.8-5.2,8.6-9.8,11.4
			c-0.7,0.4-0.9,1.7-1.4,2.5c0-13.6,0-27.3,0-40.9C56.5,10.5,93.1,10.5,129.7,10.5z"/>
		<path class="st0" d="M178.9,149.6c-1.3,1.1-2.8,3.1-4.7,3.8c-14.9,5.5-29.8,11-44.8,16.1c-17.4,5.9-34.9,11.4-52.4,16.9
			c-7.8,2.4-8.4,2.4-11.4-5.4c-8.1-21.2-16.3-42.4-23.5-63.8c-6.8-20.2-12.3-40.8-18.5-61.2c-1.2-4-0.1-6.2,3.8-7.6
			c15-5.2,29.8-10.8,44.8-15.9c15.2-5.2,30.5-10,45.7-15c2.2-0.7,4.4-1.3,6.7-1.9c8.1-2.2,8.3-2.2,11.5,5.4
			c16.8,40.4,30.9,81.7,41.7,124.1C178.2,146,178.4,147.1,178.9,149.6z"/>
		<path class="st0" d="M58.1,171.6c-5.7-0.8-11.1-1.6-16.5-2.1c-3.6-0.4-4.8-2.2-4.8-5.6c0.3-12.3,0.4-24.5,0.7-36.8
			c0.1-3.3,0.4-6.6,1.2-10.1C45.1,134.9,51.5,152.9,58.1,171.6z"/>
		<path class="st0" d="M143.6,30c6.3,0.9,12.4,1.5,18.3,2.7c1.1,0.2,2.5,2.2,2.6,3.5c0.5,3.6,0.5,7.3,0.4,10.9
			c-0.3,12.4-0.7,24.8-2,37.4C156.5,66.6,150.2,48.7,143.6,30z"/>
		<path class="st0" d="M82.9,25.8C71,29.7,59.1,33.5,46.2,37.7c0.8-4.1,1.1-7.8,2.4-11.2c0.5-1.4,3.1-2.8,4.8-2.9
			c9.7-0.3,19.5-0.1,29.2-0.1C82.7,24.3,82.8,25,82.9,25.8z"/>
		<path class="st0" d="M118.9,175.8c12-3.9,24-7.8,36.1-11.7c0.1,0.6,0.4,1.1,0.3,1.5c-1.7,12.5-1.7,12.6-14.2,12.3
			c-7.3-0.1-14.6-0.7-21.9-1.1C119.1,176.5,119,176.2,118.9,175.8z"/>
		<path class="st0" d="M169.6,39.9c0.9,1.9,2.8,3.8,2.6,5.6c-1.3,11.5-3,22.9-4.9,34.2c0-12.9,0-25.9,0-38.8
			C168.1,40.5,168.9,40.2,169.6,39.9z"/>
		<path class="st0" d="M34.3,161.2c-5.2,0.1-4.9-3.1-4.7-5.9c0.7-6.9,1.7-13.8,2.7-20.7c0.6-4.2,1.2-8.4,2-13.8
			C34.3,135.1,34.3,148.1,34.3,161.2z"/>
		<path class="st0" d="M53.2,174.4c6.3-1.7,8.2,1.9,9.1,6.8C55.9,182.7,55.2,182.2,53.2,174.4z"/>
		<path class="st0" d="M139.4,20.6c6.5-1.5,7.1-1.1,9,6.3C142.3,28.4,141.9,28.2,139.4,20.6z"/>
		<path class="st0" d="M43.2,35.9c-1,6.3-7.2,4.5-11.2,7.9C32.2,34.9,39.4,38,43.2,35.9z"/>
		<path class="st0" d="M169.3,158.8c-0.1,5.2-1,5.7-10.8,6.9C158.6,161.8,158.9,161.6,169.3,158.8z"/>
		<path class="st0" d="M120.4,179.6c8.4,0.5,15.4,0.9,22.5,1.4C141.1,184.1,131.7,183.6,120.4,179.6z"/>
		<path class="st0" d="M58.8,19c7.1-2,13.8,1.3,20.6,2.9c-6.9-0.4-13.7-0.8-20.6-1.3C58.8,20.1,58.8,19.6,58.8,19z"/>
	</g>
</g>
<text transform="matrix(1 0 0 1 44.2808 115.0591)" class="st1k1 st1k2">1000</text>
</svg>
