<svg version="1.1" id="Layer_1" xmlns="http://www.w3.org/2000/svg" xmlns:xlink="http://www.w3.org/1999/xlink" x="0px" y="0px"
	 viewBox="0 0 200 200" style="enable-background:new 0 0 200 200;" xml:space="preserve">
<style type="text/css">
	.st0{fill:#ffffff;}
</style>
<g>
	<g>
		<path class="st0" d="M103,5c30,0,59.9,0,89.9,0c0,64,0,128,0,192c-13.6,0-27.3,0-40.9,0c11.3-12.3,22.3-24.9,34.1-36.8
			c5.1-5.2,5.5-9.5,2.6-15.9c-3.3-7.5-4.6-15.9-1.4-23.8c1.7-4.2,0.7-5.4-2.9-6.1c-7.1-1.3-14.2-2.6-21.8-3.9
			c0.9-9.9,1.8-19.7,2.7-29.4c0-0.4,0.5-0.8,0.7-1.3c3.1-5.1,2.5-6.4-3.4-7.2c-11.5-1.6-23-3.2-34.5-4.9c-7.5-1.1-15.2-3.7-22.7,3
			c1.2-6.2,2.2-11.1,3.1-15.9c2.4-13.1,4.9-26.1,7.3-39.2c0.5-2.7,0.8-5.1-3.7-3.8c-1.6,0.5-4.1-1.8-6-3.1C104.8,7.8,104,6.3,103,5z
			"/>
		<path  fill="current" d="M103,5c1,1.3,1.8,2.8,3.1,3.7c1.9,1.3,4.4,3.6,6,3.1c4.6-1.4,4.2,1.1,3.7,3.8c-2.4,13.1-4.8,26.1-7.3,39.2
			c-0.9,4.9-1.9,9.8-3.1,15.9c7.5-6.7,15.1-4.1,22.7-3c11.5,1.7,23,3.3,34.5,4.9c5.9,0.8,6.5,2.1,3.4,7.2c-0.3,0.4-0.7,0.8-0.7,1.3
			c-0.9,9.7-1.8,19.4-2.7,29.4c7.7,1.4,14.7,2.6,21.8,3.9c3.7,0.7,4.6,1.9,2.9,6.1c-3.2,7.8-1.9,16.3,1.4,23.8
			c2.9,6.4,2.5,10.7-2.6,15.9c-11.7,11.9-22.8,24.5-34.1,36.8c-1,0-2,0-3,0c-6.4-0.9-12.8-1.5-19.1-2.7
			c-34.8-6.4-69.6-12.9-104.3-19.3c-4.8-0.9-8.3-3.1-11-6.9c-7.3-10.4-5.3-28.4,4.4-35.3c2.7-1.9,5.6-3.8,7.8-6.2
			c1.9-2,3.8-4.7,4.2-7.3c3.5-25,6.8-50.1,9.9-75.2c0.6-4.8,2.7-7.8,6.9-10.1C65.5,24.5,83.2,14.7,101,5C101.7,5,102.3,5,103,5z
			 M111.9,16.1C94.7,26,77.7,35.7,60.8,45.6c-1,0.6-1.5,2.4-1.7,3.7c-1.3,8.9-2.4,17.8-3.7,26.7c-2.6,18.9-5.3,37.8-7.9,56.7
			c0.4,0.2,0.9,0.5,1.3,0.7c3.3-1.8,6.5-3.8,9.9-5.4c3-1.5,4.5-3.2,3.6-7c-0.8-3.2-0.8-6.7-0.4-9.9c1.3-11.8,5.7-21.7,17.5-26.9
			c6.2-2.8,12.4-5.7,18.3-9c2-1.1,4-3.6,4.4-5.7C105.6,51.8,108.7,34.2,111.9,16.1z M15.9,140.2c-1,4.7-2.3,8.5-2.6,12.3
			c-0.6,9.9,5,17.9,12.8,19.4c32.2,5.9,64.4,12,96.6,17.8c8.5,1.5,17.1,2.6,25.6,3.8c-1.6-5.9-3.5-10.6-4-15.4
			c-0.5-4.8,0.4-9.8,0.8-15.3C102.4,155.3,59.5,147.8,15.9,140.2z M165.2,76.8c-14.7-2.4-27.9-4.5-41.2-6.7
			c-6.4-1-12.3-0.9-17.8,3.7c-3.8,3.1-8.6,4.9-13,7.2c-6.4,3.3-12.9,6.5-19.4,9.7c2.3,1.9,4.4,2.8,6.6,3.1
			c15.6,2.4,31.2,4.7,46.9,6.8c3,0.4,7,0.9,9.1-0.7C146,92.9,155.2,85,165.2,76.8z M185.1,119.2c-0.3-0.5-0.6-1.1-0.9-1.6
			c-3.4-0.6-6.8-1.1-10.2-1.7c-4.3-0.8-7.3,0.5-10.3,4c-6.9,8.1-14.7,15.4-21.5,23.6c-6,7.2-13.2,8.4-21.8,7
			c-13.3-2.2-26.6-4.1-39.9-5.6c-7.6-0.9-12.7-4.3-15.5-11.3c-0.5-1.3-1-2.7-1.6-4.4c-2.9,1.7-5.6,3.2-8.4,4.7
			c-2.9,1.6-5.9,3-8.8,4.6c-7.2,3.9-13.8,1.1-15.9-6.7c-0.2-0.8-0.3-1.7-0.6-3.2c-4,3.2-7.4,6-11.8,9.6c4.4,0.8,7.4,1.4,10.5,1.8
			c17.9,2.5,35.9,4.6,53.8,7.7c20.3,3.5,40.4,7.8,60.6,11.9c3.3,0.7,5.5,0.1,7.8-2.6c4.1-4.8,8.8-9.1,13.1-13.7
			C170.8,135.3,177.9,127.2,185.1,119.2z M44.2,44.1c-3.5,26.2-7,52.5-10.3,78.9c-0.4,3.1-0.6,6.3,0.1,9.3c0.7,3.5,3.5,5.1,7.2,4.6
			c3.5-0.5,3.7-2.9,4-5.8c1.6-14.9,3.1-29.7,5.1-44.6c1.7-13.1,4-26.2,6-39.1C51.9,46.2,48.3,45.2,44.2,44.1z M110.8,101.9
			c-5.9-1-11.8-2.2-17.7-2.8c-1.1-0.1-3.1,1.6-3.6,2.9c-4.5,12.2-3.7,24.5-0.2,36.7c0.4,1.4,1.8,3.1,3.1,3.4
			c5.4,1.1,10.9,1.6,16.5,2.4C105.6,129.6,106.2,114.8,110.8,101.9z M132.4,147.9c-7.8-15.3-2.2-29.1,0.1-43.3
			c-2.9-0.4-5.8-0.4-8.4-1.1c-3-0.8-4.3,0.3-5.1,2.9c-3.7,12.3-4.8,24.8-1.8,37.4c0.3,1.2,1.5,2.9,2.5,3
			C123.5,147.4,127.5,147.5,132.4,147.9z M71.5,94.7c-8,10.1-8.7,31.1-1.6,41.2c2.7,3.9,6.2,5.8,11.2,5c-4.1-14.5-5-28.8-0.3-43.2
			C77.7,96.7,74.7,95.8,71.5,94.7z M184.1,139c-11,6.4-36.4,34.6-36.1,38.3C160,164.5,172.1,151.7,184.1,139z M148.2,171.5
			c9.8-14.3,25.8-23,34.4-38.2C171.8,146.6,156.7,156.1,148.2,171.5z M116.7,102c-7.7,5.1-9.3,35.8-2.3,44.4
			C110.3,130.9,112.5,116.7,116.7,102z M101.6,10c-0.3-0.4-0.5-0.9-0.8-1.3C82.5,18.8,64.3,28.8,46,38.9c0.3,0.5,0.5,0.9,0.8,1.4
			C65,30.2,83.3,20.1,101.6,10z M85.7,141c-0.8-6.6-2.3-13.7-2.3-20.8c0.1-7.3,1.7-14.6,2.6-21.7C78.8,100.2,78.5,132,85.7,141z
			 M162.8,116.5c-1.6,0-2-0.1-2.1,0c-8.6,7.7-17.3,15.4-25.7,23.3c-1,0.9-0.7,3.2-1,4.9c0.6,0.2,1.2,0.4,1.8,0.6
			C144.5,136,153.3,126.6,162.8,116.5z M184.5,154.1c-0.4-0.4-0.8-0.7-1.1-1.1c-10.1,12.3-25.1,19.9-33.5,33.8
			C161.4,175.9,172.9,165,184.5,154.1z M153.4,176.6c0.4,0.5,0.9,0.9,1.3,1.4c9.6-11.3,23.5-18.4,32.1-32.4
			C175,156.4,164.2,166.5,153.4,176.6z M132.5,119.8c0.4,0.3,0.8,0.6,1.2,0.9c8.8-6.9,17.6-13.7,26.5-20.6c-0.3-0.3-0.5-0.7-0.8-1
			c-8.1,5.3-16.3,10.6-24.3,16.1C133.7,116,133.3,118.2,132.5,119.8z M102.1,13.1c-0.3-0.4-0.6-0.8-0.8-1.2
			c-17.7,9.8-35.3,19.6-53,29.3c0.2,0.3,0.4,0.7,0.6,1C66.6,32.6,84.4,22.9,102.1,13.1z M159.9,108.4c-0.4-0.5-0.8-0.9-1.2-1.4
			c-9.1,7.3-18.2,14.6-27.4,21.9c0.5,0.6,1,1.2,1.5,1.8C141.9,123.2,150.9,115.8,159.9,108.4z M182.7,127.6
			c-9.7,13.7-24.6,22.7-33.4,37.1C159.5,151.5,174.5,142.6,182.7,127.6z M131.4,135.4c0.5,0.3,1.1,0.7,1.6,1c9-8.2,18-16.3,27-24.5
			c-9.2,6.3-18,12.9-26.7,19.7C132.3,132.4,132,134.1,131.4,135.4z M178.7,165.1c-0.5-0.5-0.9-0.9-1.4-1.4
			c-8.5,9-18.8,16.2-23.3,22.6C159.9,181.3,169.3,173.2,178.7,165.1z M134.9,107.8c0.3,0.4,0.6,0.7,0.9,1.1
			c8.5-6,18.3-10.2,25.7-17.6c-0.2-0.3-0.5-0.7-0.7-1C152.2,96.1,143.6,102,134.9,107.8z M185.2,143.3c-0.5-0.4-0.9-0.9-1.4-1.3
			c-6.9,7.2-13.8,14.4-20.7,21.5c0.3,0.3,0.7,0.6,1,0.9C171.2,157.4,178.2,150.3,185.2,143.3z M144.1,98.5
			c9.4-3.7,17.4-10.6,17.4-14.3C155.6,89,149.9,93.8,144.1,98.5z M150.3,111.8c-0.3-0.4-0.6-0.7-0.8-1.1
			c-5.8,4.4-11.7,8.8-17.5,13.2c0.3,0.4,0.6,0.8,1,1.3C138.7,120.7,144.5,116.3,150.3,111.8z M153.9,100.9c-0.2-0.4-0.4-0.8-0.6-1.1
			c-6.4,4.1-12.8,8.2-19.2,12.2c0.2,0.4,0.5,0.7,0.7,1.1C141.1,109,147.5,104.9,153.9,100.9z M67.7,35c-0.2-0.3-0.3-0.7-0.5-1
			c-5,2.8-9.9,5.6-14.9,8.3c0.2,0.4,0.5,0.8,0.7,1.2C57.9,40.7,62.8,37.9,67.7,35z M132.3,138.3c0.3,0.3,0.5,0.7,0.8,1
			c4.7-3.8,9.4-7.7,14.1-11.5c-0.2-0.3-0.5-0.6-0.7-0.9C141.7,130.7,137,134.5,132.3,138.3z"/>
		<path class="st0" d="M101,5c-17.8,9.7-35.5,19.5-53.3,29c-4.2,2.3-6.3,5.2-6.9,10.1c-3.1,25.1-6.4,50.1-9.9,75.2
			c-0.4,2.6-2.3,5.3-4.2,7.3c-2.2,2.4-5.1,4.3-7.8,6.2c-9.8,6.9-11.7,24.9-4.4,35.3c2.7,3.8,6.3,6,11,6.9
			c34.8,6.3,69.6,12.9,104.3,19.3c6.3,1.2,12.7,1.8,19.1,2.7c-46.6,0-93.2,0-139.9,0c0-64,0-128,0-192C39.7,5,70.4,5,101,5z"/>
		<path class="st0" d="M111.9,16.1c-3.3,18.1-6.3,35.7-9.8,53.3c-0.4,2.2-2.5,4.6-4.4,5.7c-5.9,3.3-12.1,6.3-18.3,9
			c-11.7,5.2-16.1,15.1-17.5,26.9c-0.4,3.3-0.4,6.8,0.4,9.9c0.9,3.8-0.6,5.5-3.6,7c-3.4,1.7-6.6,3.6-9.9,5.4
			c-0.4-0.2-0.9-0.5-1.3-0.7c2.6-18.9,5.3-37.8,7.9-56.7c1.2-8.9,2.4-17.8,3.7-26.7c0.2-1.3,0.8-3.1,1.7-3.7
			C77.7,35.7,94.7,26,111.9,16.1z"/>
		<path class="st0" d="M15.9,140.2c43.6,7.6,86.4,15.1,129.2,22.6c-0.3,5.5-1.2,10.5-0.8,15.3c0.5,4.9,2.4,9.6,4,15.4
			c-8.5-1.3-17.1-2.3-25.6-3.8c-32.2-5.8-64.4-11.9-96.6-17.8c-7.8-1.4-13.5-9.4-12.8-19.4C13.6,148.6,14.9,144.8,15.9,140.2z
			 M134.8,182.5c1-1.1,3.4-2.6,4.1-4.8c2.2-6.7,0.7-9.2-6.9-10.6c-17.8-3.4-35.6-6.5-53.4-9.9c-7.8-1.5-7.7-1.7-8.5,6.4
			c-0.1,0.8-0.1,1.7-0.1,2.5c-0.4,4.8,1.8,7.5,6.7,8c3.6,0.4,7.3,0.9,10.9,1.4C102.8,177.8,117.9,180,134.8,182.5z M22.2,155
			c0.5,3.2-0.7,8.3,4.5,9.8c9.9,2.7,20,5,30,7.1c5.4,1.1,6.7-0.2,7.2-5.8c0.3-2.6,0.7-5.3,1.1-7.9c0.7-3.9-0.8-5.9-4.8-6.3
			c-10.2-1.1-20.4-2.3-30.6-3.8C23,147,22.3,147.4,22.2,155z"/>
		<path class="st0" d="M165.2,76.8c-10,8.2-19.2,16-28.9,23.2c-2.1,1.5-6.1,1.1-9.1,0.7c-15.6-2.1-31.3-4.4-46.9-6.8
			c-2.2-0.3-4.3-1.2-6.6-3.1c6.5-3.2,13-6.4,19.4-9.7c4.4-2.3,9.3-4.1,13-7.2c5.5-4.6,11.4-4.7,17.8-3.7
			C137.3,72.3,150.5,74.5,165.2,76.8z"/>
		<path class="st0" d="M185.1,119.2c-7.2,8-14.3,16.1-21.6,24.1c-4.3,4.7-8.9,9-13.1,13.7c-2.3,2.6-4.5,3.2-7.8,2.6
			c-20.2-4.1-40.3-8.4-60.6-11.9c-17.8-3.1-35.9-5.1-53.8-7.7c-3.1-0.4-6.1-1.1-10.5-1.8c4.4-3.6,7.8-6.3,11.8-9.6
			c0.3,1.5,0.4,2.3,0.6,3.2c2.1,7.8,8.6,10.6,15.9,6.7c2.9-1.6,5.9-3,8.8-4.6c2.7-1.5,5.4-3.1,8.4-4.7c0.6,1.6,1.1,3,1.6,4.4
			c2.8,7,7.9,10.5,15.5,11.3c13.4,1.5,26.7,3.4,39.9,5.6c8.6,1.4,15.8,0.2,21.8-7c6.8-8.1,14.7-15.5,21.5-23.6c3-3.6,6-4.8,10.3-4
			c3.4,0.6,6.8,1.2,10.2,1.7C184.4,118.1,184.8,118.6,185.1,119.2z"/>
		<path class="st0" d="M44.2,44.1c4.1,1.2,7.7,2.2,12,3.4c-2,12.9-4.2,25.9-6,39.1c-2,14.8-3.5,29.7-5.1,44.6
			c-0.3,2.9-0.5,5.3-4,5.8c-3.7,0.5-6.5-1.1-7.2-4.6c-0.6-3-0.4-6.3-0.1-9.3C37.3,96.6,40.8,70.3,44.2,44.1z"/>
		<path class="st0" d="M110.8,101.9c-4.6,12.9-5.2,27.6-1.9,42.6c-5.6-0.8-11.1-1.3-16.5-2.4c-1.2-0.2-2.7-2-3.1-3.4
			c-3.6-12.2-4.4-24.6,0.2-36.7c0.5-1.3,2.5-3,3.6-2.9C99,99.8,104.8,100.9,110.8,101.9z"/>
		<path class="st0" d="M132.4,147.9c-4.9-0.4-8.9-0.4-12.7-1c-1-0.2-2.2-1.8-2.5-3c-3-12.6-1.9-25.1,1.8-37.4
			c0.8-2.6,2.1-3.8,5.1-2.9c2.7,0.7,5.5,0.8,8.4,1.1C130.2,118.8,124.6,132.6,132.4,147.9z"/>
		<path class="st0" d="M71.5,94.7c3.3,1.1,6.2,2,9.2,3c-4.7,14.4-3.8,28.7,0.3,43.2c-5,0.8-8.5-1.1-11.2-5
			C62.7,125.8,63.4,104.8,71.5,94.7z"/>
		<path class="st0" d="M184.1,139c-12,12.8-24.1,25.5-36.1,38.3C147.7,173.6,173.2,145.4,184.1,139z"/>
		<path class="st0" d="M148.2,171.5c8.4-15.4,23.6-24.9,34.4-38.2C174.1,148.5,158.1,157.3,148.2,171.5z"/>
		<path class="st0" d="M116.7,102c-4.2,14.7-6.4,28.9-2.3,44.4C107.4,137.8,109,107.1,116.7,102z"/>
		<path class="st0" d="M101.6,10C83.3,20.1,65,30.2,46.7,40.4c-0.3-0.5-0.5-0.9-0.8-1.4c18.3-10.1,36.6-20.2,54.9-30.3
			C101.1,9.1,101.3,9.6,101.6,10z"/>
		<path class="st0" d="M85.7,141c-7.2-9-6.9-40.8,0.3-42.5c-0.9,7.1-2.5,14.4-2.6,21.7C83.4,127.3,84.9,134.4,85.7,141z"/>
		<path class="st0" d="M162.8,116.5c-9.4,10-18.2,19.4-27.1,28.8c-0.6-0.2-1.2-0.4-1.8-0.6c0.3-1.7,0-4,1-4.9
			c8.4-7.9,17.1-15.6,25.7-23.3C160.8,116.4,161.2,116.5,162.8,116.5z"/>
		<path class="st0" d="M184.5,154.1c-11.5,10.9-23.1,21.8-34.6,32.7c8.4-13.9,23.4-21.5,33.5-33.8
			C183.7,153.4,184.1,153.8,184.5,154.1z"/>
		<path class="st0" d="M153.4,176.6c10.8-10.1,21.7-20.2,33.4-31.1c-8.5,14-22.4,21.1-32.1,32.4
			C154.2,177.5,153.8,177.1,153.4,176.6z"/>
		<path class="st0" d="M132.5,119.8c0.8-1.6,1.3-3.8,2.6-4.7c8-5.5,16.2-10.7,24.3-16.1c0.3,0.3,0.5,0.7,0.8,1
			c-8.8,6.9-17.6,13.7-26.5,20.6C133.3,120.4,132.9,120.1,132.5,119.8z"/>
		<path class="st0" d="M102.1,13.1c-17.7,9.7-35.5,19.5-53.2,29.2c-0.2-0.3-0.4-0.7-0.6-1c17.7-9.8,35.3-19.6,53-29.3
			C101.6,12.4,101.9,12.7,102.1,13.1z"/>
		<path class="st0" d="M159.9,108.4c-9,7.4-18,14.9-27,22.3c-0.5-0.6-1-1.2-1.5-1.8c9.1-7.3,18.2-14.6,27.4-21.9
			C159.1,107.4,159.5,107.9,159.9,108.4z"/>
		<path class="st0" d="M182.7,127.6c-8.2,15-23.2,23.9-33.4,37.1C158.1,150.3,173,141.3,182.7,127.6z"/>
		<path class="st0" d="M131.4,135.4c0.6-1.3,0.9-3,1.9-3.8c8.7-6.8,17.5-13.5,26.7-19.7c-9,8.2-18,16.3-27,24.5
			C132.5,136,131.9,135.7,131.4,135.4z"/>
		<path class="st0" d="M178.7,165.1c-9.4,8.1-18.8,16.2-24.7,21.3c4.5-6.5,14.8-13.6,23.3-22.6C177.8,164.2,178.2,164.6,178.7,165.1
			z"/>
		<path class="st0" d="M134.9,107.8c8.6-5.8,17.3-11.7,25.9-17.5c0.2,0.3,0.5,0.7,0.7,1c-7.5,7.4-17.2,11.6-25.7,17.6
			C135.6,108.5,135.3,108.2,134.9,107.8z"/>
		<path class="st0" d="M185.2,143.3c-7,7.1-14,14.1-21.1,21.2c-0.3-0.3-0.7-0.6-1-0.9c6.9-7.2,13.8-14.4,20.7-21.5
			C184.3,142.4,184.7,142.8,185.2,143.3z"/>
		<path class="st0" d="M144.1,98.5c5.7-4.7,11.5-9.5,17.4-14.3C161.5,87.9,153.5,94.8,144.1,98.5z"/>
		<path class="st0" d="M150.3,111.8c-5.8,4.4-11.6,8.9-17.4,13.3c-0.3-0.4-0.6-0.8-1-1.3c5.8-4.4,11.7-8.8,17.5-13.2
			C149.7,111.1,150,111.5,150.3,111.8z"/>
		<path class="st0" d="M153.9,100.9c-6.4,4.1-12.7,8.1-19.1,12.2c-0.2-0.4-0.5-0.7-0.7-1.1c6.4-4.1,12.8-8.2,19.2-12.2
			C153.5,100.1,153.7,100.5,153.9,100.9z"/>
		<path class="st0" d="M67.7,35c-4.9,2.9-9.8,5.7-14.7,8.6c-0.2-0.4-0.5-0.8-0.7-1.2c5-2.8,9.9-5.6,14.9-8.3
			C67.3,34.3,67.5,34.7,67.7,35z"/>
		<path class="st0" d="M132.3,138.3c4.7-3.8,9.4-7.6,14.1-11.4c0.2,0.3,0.5,0.6,0.7,0.9c-4.7,3.8-9.4,7.7-14.1,11.5
			C132.8,139,132.5,138.6,132.3,138.3z"/>
		<path fill="current" d="M134.8,182.5c-16.9-2.5-32-4.7-47.1-7c-3.6-0.5-7.2-1-10.9-1.4c-4.9-0.5-7.1-3.2-6.7-8c0.1-0.8,0.1-1.7,0.1-2.5
			c0.8-8.1,0.7-7.9,8.5-6.4c17.8,3.4,35.6,6.4,53.4,9.9c7.5,1.5,9.1,3.9,6.9,10.6C138.2,179.9,135.8,181.4,134.8,182.5z M74,160.1
			c-0.2,2.1-0.5,4-0.7,6c-0.3,3.1,1.2,4.5,4.2,4.9c17.9,2.6,35.8,5.3,53.8,7.8c1.4,0.2,3.7-0.3,4.2-1.3c0.8-1.4,1.1-4,0.3-5.1
			c-1-1.3-3.4-2-5.2-2.3C112,166.7,93.3,163.5,74,160.1z"/>
		<path fill="current" d="M22.2,155c0.2-7.6,0.8-7.9,7.5-6.9c10.2,1.5,20.4,2.7,30.6,3.8c4.1,0.4,5.5,2.4,4.8,6.3c-0.5,2.6-0.9,5.2-1.1,7.9
			c-0.6,5.6-1.8,6.9-7.2,5.8c-10.1-2.1-20.1-4.3-30-7.1C21.5,163.3,22.7,158.2,22.2,155z M26,151.3c-1.6,8.5-0.5,10.1,7.5,11.7
			c6.3,1.3,12.6,3.1,18.9,4.6c2.5,0.6,5.1,1,7.9,1.6c0.7-4.8,1.3-9,2-13.8C49.9,153.9,38.1,152.6,26,151.3z"/>
		<path  class="st0" d="M74,160.1c19.3,3.4,37.9,6.6,56.6,9.9c1.9,0.3,4.2,1,5.2,2.3c0.8,1.1,0.5,3.7-0.3,5.1
			c-0.5,0.9-2.8,1.5-4.2,1.3c-17.9-2.5-35.9-5.2-53.8-7.8c-3-0.4-4.5-1.8-4.2-4.9C73.6,164.2,73.8,162.2,74,160.1z"/>
		<path class="st0" d="M26,151.3c12.1,1.4,23.9,2.7,36.2,4c-0.7,4.8-1.3,9-2,13.8c-2.8-0.6-5.3-1-7.9-1.6
			c-6.3-1.5-12.5-3.3-18.9-4.6C25.5,161.3,24.3,159.8,26,151.3z"/>
	</g>
</g>
</svg>