<?xml version="1.0" encoding="utf-8"?>
<!-- Generator: Adobe Illustrator 23.0.0, SVG Export Plug-In . SVG Version: 6.00 Build 0)  -->
<svg version="1.1" id="Layer_1" xmlns="http://www.w3.org/2000/svg" xmlns:xlink="http://www.w3.org/1999/xlink" x="0px" y="0px"
	 viewBox="0 0 200 200" style="enable-background:new 0 0 200 200;" xml:space="preserve">
<style type="text/css">
	.st0{fill:#FFFFFF;}
	.st6m1{font-family:'Barrio';}
	.st6m2{font-size:109.9191px;}
</style>
<g>
	<g>
		<path fill="current" d="M71.9,27.2c1.3,0,2.7,0,4,0c1.9,1.3,4.7,2.2,5.4,4c1.6,3.6,3.8,3.9,7,3.4c2.9-0.4,5.5,0.1,7.9-2.8
			c4.2-5.2,11.2-4.9,15,0.1c3.3,4.2,11.3,4.4,14.6,0.3c4.6-5.8,14.1-5.2,17.9,1.1c2.8,4.6,8.2,5.1,11.8,1c4.4-4.9,12.4-5,15.9,0.6
			c1.8,2.8,3.8,3.4,6.6,3.9c7.2,1.3,8.7,3.1,8.9,10.1c0.1,5.3,0.1,10.6,0.1,15.9c0,18.6,0.4,37.2-0.3,55.8
			c-0.6,14.9-2.7,29.8-4,44.6c-0.4,4.9-2.8,7.1-7.9,6.7c-5.8-0.5-11.6-1.3-17.4-1c-23.7,1-47.5,2.4-71.2,3.4
			c-16.9,0.7-33.9,1.1-50.8,1.2c-6.9,0.1-7.1-0.7-7.6-7.5c-0.1-1.3-0.9-2.5-1.6-3.7c-1.4-2.4-3.7-4.6-4.2-7.2
			c-1.4-7-2.1-14.1-3-21.1c0-8.7,0-17.3,0-26c0.3-2.1,0.7-4.2,0.8-6.3c0.5-20.2,1-40.5,1.3-60.7c0-3.3,1.5-4.4,4.4-4.6
			c2.2-0.1,4.3,0,6.5-0.4c1.1-0.2,2.6-1.1,2.9-2c1.6-4.9,5.2-7.4,10-7.5c5.2-0.1,8.5,3,9.7,7.8c2.4,0,4.4,0.2,6.3-0.1
			c1.4-0.2,2.9-0.9,4-1.8C67.3,32.2,69.6,29.6,71.9,27.2z M22.9,60.2c0,14.2-0.2,27.8,0.1,41.4c0.4,18.1,1.3,36.2,1.9,54.2
			c0.1,4.4,2.3,6.3,6.6,6.2c4.5-0.1,9,0.1,13.5,0.1c30.4,0.1,60.8,0.2,91.3,0.3c11.3,0,22.6-0.3,33.9-0.3c4.3,0,6.8-1.4,7-6.2
			c0.2-5.1,1.7-10.2,1.7-15.3c0.2-26.3,0-52.5,0-78.8c0-0.4-0.3-0.9-0.5-1.5C126.7,60.2,75.1,60.2,22.9,60.2z M22.8,56.6
			c52.4,0,104,0,156.2,0c-0.5-4.6-0.8-8.6-1.4-12.5c-0.1-0.9-1.3-2.2-2-2.3c-6.3-0.6-12.7-1-19.3-1.5c1.8,6.9,3.8,7.5,8.2,3.5
			c0.7-0.6,2.3-0.2,3.5-0.3c-0.1,1.1,0.3,2.6-0.3,3.4c-3.7,4.8-10.7,3.8-13.5-1.8c-0.7-1.5-1.1-3.1-1.7-5c-8.5-0.4-17-0.8-25.6-1.2
			c-0.3,0.5-0.6,1.1-0.9,1.6c1.6,1.6,3,4.2,4.8,4.5c2.3,0.4,5-1.1,7.4-1.9c1-0.3,1.7-1.5,2.6-1.5c0.6,0,1.8,1.3,1.8,1.9
			c-0.1,0.9-0.9,2.4-1.6,2.6c-3.7,0.9-8,3-11.1,1.8c-3.3-1.2-5.5-5.5-9.3-9.7c-6.3,0-14.8,0-23.2,0c0.1,5.6,1.9,6.7,6.4,4.2
			c0.9-0.5,2.1-0.8,3-0.5c0.6,0.2,1.2,1.9,0.9,2.5c-0.4,0.9-1.5,1.7-2.5,2c-7,2.1-9.6,0.3-12.1-8.7c-8.1,0.5-16.2,1-24.4,1.6
			c-0.1,0.6-0.3,1.3-0.4,1.9c2.1,0.5,4.1,1,6.2,1.5c1,0.2,2.3,0.3,2.9,0.9c0.5,0.5,0.6,2.2,0.1,2.6c-0.7,0.6-2.3,1.1-2.9,0.7
			c-3.2-1.8-6.2-3.9-9.3-5.8c-0.9-0.6-1.8-1.7-2.6-1.6c-8.1,0.4-16.2,0.9-24.8,1.4c2.1,3.3,3.8,5.8,7.7,3.5c0.8-0.5,2.1-0.9,2.9-0.5
			c0.6,0.3,1.1,1.9,0.8,2.5c-0.4,0.8-1.6,1.6-2.5,1.8c-5,1.2-8.8-0.4-11.2-5.1c-2-3.9-5.3-1.4-7.9-1.5c-1.1,0-2.9,1.7-3.1,2.9
			C23.5,48.3,23.3,52.1,22.8,56.6z M31.1,173.1c27.5-0.9,54.3-1.8,81.1-2.7c-4.2-1.1-8.3-1.2-12.5-1.1c-19.9,0.5-39.8,1.1-59.7,1.7
			c-4,0.1-7.7,0.1-8.9-4.9C31.1,167.9,31.1,169.6,31.1,173.1z M86.6,167.3c0-0.5,0-0.9,0-1.4c-16,0-32.1,0-48.1,0c0,0.5,0,0.9,0,1.4
			C54.5,167.3,70.6,167.3,86.6,167.3z M179.3,162c-0.3,4.6-3.1,5.5-7,5c-2.3-0.2-4.6-0.3-6.9-0.3c-11.9,0.1-23.8,0.3-35.7,0.5
			c0,0.5,0,1,0,1.5c1,0,2,0,3,0c13.9,0,27.8-0.1,41.6,0.1C179.6,169.1,179.6,165.9,179.3,162z M50.3,37c0.3-0.7,0.6-1.4,0.9-2.1
			c-2.2-1-4.6-2.9-6.7-2.8c-2.4,0.2-4.6,2.3-6.9,3.6c0.2,0.4,0.5,0.8,0.7,1.3C42.3,37,46.3,37,50.3,37z M127.1,35.6
			c5.2,0.3,9.5,0.5,14.1,0.7C137.7,30.3,133,29.9,127.1,35.6z M67.6,34.1c0.2,0.7,0.5,1.3,0.7,2c3.7-0.3,7.4-0.6,11.1-1
			c0.2-0.4,0.4-0.8,0.5-1.2c-1.8-1-3.7-3.1-5.4-2.9C72.2,31.2,69.9,33,67.6,34.1z M169.7,38c-4.8-5.1-8.5-5.2-11.4-0.8
			C161.9,37.4,165.5,37.7,169.7,38z"/>
		<path class="st0" d="M19,136.1c1,7,1.6,14.2,3,21.1c0.5,2.6,2.8,4.7,4.2,7.2c0.7,1.2,1.5,2.4,1.6,3.7c0.4,6.8,0.7,7.6,7.6,7.5
			c16.9-0.1,33.9-0.5,50.8-1.2c23.7-1,47.5-2.4,71.2-3.4c5.8-0.2,11.6,0.5,17.4,1c5,0.4,7.4-1.8,7.9-6.7c1.4-14.9,3.4-29.7,4-44.6
			c0.7-18.6,0.3-37.2,0.3-55.8c0-5.3,0.1-10.6-0.1-15.9c-0.2-7-1.7-8.8-8.9-10.1c-2.8-0.5-4.8-1.1-6.6-3.9
			c-3.5-5.5-11.6-5.5-15.9-0.6c-3.6,4.1-9,3.6-11.8-1c-3.8-6.3-13.3-6.9-17.9-1.1c-3.3,4.1-11.3,4-14.6-0.3c-3.9-5-10.8-5.3-15-0.1
			c-2.4,2.9-5,2.4-7.9,2.8c-3.2,0.4-5.5,0.1-7-3.4c-0.8-1.8-3.6-2.7-5.4-4c37.6,0,75.2,0,112.8,0c0,49.9,0,99.9,0,149.8
			c-56.6,0-113.2,0-169.8,0C19,163.4,19,149.7,19,136.1z"/>
		<path class="st0" d="M71.9,27.2c-2.3,2.4-4.6,4.9-7.1,7.2c-1.1,0.9-2.6,1.6-4,1.8c-1.9,0.3-4,0.1-6.3,0.1
			c-1.3-4.7-4.5-7.9-9.7-7.8c-4.8,0.1-8.4,2.6-10,7.5c-0.3,0.9-1.8,1.8-2.9,2c-2.1,0.4-4.3,0.3-6.5,0.4c-2.9,0.2-4.3,1.3-4.4,4.6
			c-0.3,20.2-0.8,40.5-1.3,60.7c-0.1,2.1-0.5,4.2-0.8,6.3c0-27.5,0-55.1,0-82.9C36.6,27.2,54.3,27.2,71.9,27.2z"/>
		<path class="st0" d="M22.9,60.2c52.2,0,103.8,0,155.3,0c0.2,0.6,0.5,1,0.5,1.5c0.1,26.3,0.2,52.5,0,78.8c0,5.1-1.5,10.2-1.7,15.3
			c-0.2,4.9-2.7,6.2-7,6.2c-11.3,0.1-22.6,0.3-33.9,0.3c-30.4,0-60.8-0.2-91.3-0.3c-4.5,0-9-0.2-13.5-0.1c-4.3,0.1-6.4-1.8-6.6-6.2
			c-0.6-18.1-1.5-36.2-1.9-54.2C22.6,88,22.9,74.4,22.9,60.2z"/>
		<path class="st0" d="M22.8,56.6c0.5-4.5,0.7-8.3,1.4-12c0.2-1.2,2.1-2.9,3.1-2.9c2.6,0.1,5.9-2.4,7.9,1.5
			c2.4,4.6,6.2,6.3,11.2,5.1c1-0.2,2.1-1,2.5-1.8c0.3-0.6-0.2-2.3-0.8-2.5c-0.7-0.3-2,0-2.9,0.5c-3.9,2.3-5.5-0.1-7.7-3.5
			c8.6-0.5,16.7-1.1,24.8-1.4c0.8,0,1.7,1.1,2.6,1.6c3.1,2,6.1,4.1,9.3,5.8c0.7,0.4,2.3-0.1,2.9-0.7c0.4-0.4,0.4-2.1-0.1-2.6
			c-0.6-0.6-1.9-0.7-2.9-0.9c-2.1-0.5-4.1-1-6.2-1.5c0.1-0.6,0.3-1.3,0.4-1.9c8.2-0.5,16.3-1.1,24.4-1.6c2.5,8.9,5,10.7,12.1,8.7
			c1-0.3,2.1-1.1,2.5-2c0.3-0.6-0.3-2.3-0.9-2.5c-0.8-0.3-2.1,0-3,0.5c-4.5,2.5-6.3,1.4-6.4-4.2c8.4,0,16.9,0,23.2,0
			c3.8,4.2,6,8.5,9.3,9.7c3.1,1.1,7.4-0.9,11.1-1.8c0.8-0.2,1.6-1.7,1.6-2.6c0-0.6-1.2-2-1.8-1.9c-0.9,0-1.7,1.2-2.6,1.5
			c-2.5,0.8-5.1,2.3-7.4,1.9c-1.8-0.3-3.2-2.9-4.8-4.5c0.3-0.5,0.6-1.1,0.9-1.6c8.5,0.4,17,0.8,25.6,1.2c0.6,1.9,1,3.5,1.7,5
			c2.8,5.6,9.8,6.5,13.5,1.8c0.6-0.7,0.2-2.2,0.3-3.4c-1.2,0.1-2.8-0.3-3.5,0.3c-4.4,4-6.4,3.4-8.2-3.5c6.6,0.5,12.9,0.9,19.3,1.5
			c0.8,0.1,1.9,1.4,2,2.3c0.6,3.9,0.9,7.9,1.4,12.5C126.9,56.6,75.2,56.6,22.8,56.6z"/>
		<path class="st0" d="M31.1,173.1c0-3.4,0-5.2,0-6.9c1.2,5,4.9,5,8.9,4.9c19.9-0.6,39.8-1.2,59.7-1.7c4.1-0.1,8.3,0,12.5,1.1
			C85.4,171.3,58.6,172.2,31.1,173.1z"/>
		<path class="st0" d="M86.6,167.3c-16,0-32.1,0-48.1,0c0-0.5,0-0.9,0-1.4c16,0,32.1,0,48.1,0C86.6,166.4,86.6,166.8,86.6,167.3z"/>
		<path class="st0" d="M179.3,162c0.3,3.8,0.4,7.1-4.9,7c-13.9-0.2-27.8-0.1-41.6-0.1c-1,0-2,0-3,0c0-0.5,0-1,0-1.5
			c11.9-0.2,23.8-0.4,35.7-0.5c2.3,0,4.6,0,6.9,0.3C176.2,167.5,179,166.7,179.3,162z"/>
		<path class="st0" d="M50.3,37c-4,0-8,0-12,0c-0.2-0.4-0.5-0.8-0.7-1.3c2.3-1.3,4.5-3.4,6.9-3.6c2.1-0.2,4.5,1.8,6.7,2.8
			C50.9,35.6,50.6,36.3,50.3,37z"/>
		<path class="st0" d="M127.1,35.6c5.9-5.8,10.6-5.3,14.1,0.7C136.5,36.1,132.3,35.9,127.1,35.6z"/>
		<path class="st0" d="M67.6,34.1c2.3-1.1,4.6-2.9,7-3.1c1.7-0.1,3.6,1.9,5.4,2.9c-0.2,0.4-0.4,0.8-0.5,1.2c-3.7,0.3-7.4,0.6-11.1,1
			C68.1,35.4,67.8,34.7,67.6,34.1z"/>
		<path class="st0" d="M169.7,38c-4.2-0.3-7.8-0.6-11.4-0.8C161.2,32.7,164.9,32.9,169.7,38z"/>
	</g>
</g>
<text transform="matrix(1 0 0 1 68.0601 150.3877)" class="st6m1 st6m2">6</text>
</svg>
