<?xml version="1.0" encoding="utf-8"?>
<!-- Generator: Adobe Illustrator 23.0.0, SVG Export Plug-In . SVG Version: 6.00 Build 0)  -->
<svg version="1.1" id="Layer_1" xmlns="http://www.w3.org/2000/svg" xmlns:xlink="http://www.w3.org/1999/xlink" x="0px" y="0px"
	 viewBox="0 0 200 200" style="enable-background:new 0 0 200 200;" xml:space="preserve">
<style type="text/css">
	.st0{fill:#FFFFFF;}
</style>
<g>
	<g>
		<path class="st0" d="M70.8,196c-20,0-39.9,0-59.9,0c0-63.2,0-126.4,0-189.6c59.9,0,119.7,0,179.6,0c0,10,0,20,0,29.9
			c-2.4-7.4-7-13.4-14.7-14.7c-7.1-1.2-14.6-0.3-22.2-0.3c0-0.3-0.2-1.3-0.2-2.2c0.1-5-2.2-7.8-7.2-8.2c-1.5-0.1-2.9-0.5-4.4-0.6
			c-27-3-54-3-81,0c-10.1,1.1-10.3,1.1-11.7,10.9c0,0.3-0.3,0.5-0.4,0.7c-3.9-0.6-7.8-1.6-11.7-1.9C18.1,18.7,7,34.5,14.8,51.7
			c3.9,8.7,10.3,15.3,18.1,20.8c3.2,2.3,6.5,4.7,9.1,7.6c2.8,3.1,3.6,6.9,0.9,10.9c-1.2,1.7-2.7,4.8-2,5.7c1.5,2,4.3,4,6.7,4.1
			c4.1,0.2,8.3-1.1,11.7-1.6c5.7,5.5,11,11.5,17.2,16.2c3.9,2.9,8.3,4.6,9.4,10.2c0.3,1.7,2.4,3.1,3.4,4.8c1,1.7,2.5,3.6,2.5,5.4
			c0,9.8-0.2,19.6-0.7,29.4c-0.1,1.1-1.6,2.7-2.8,3.2c-9.7,3.5-16,10.2-20,19.6C66.7,191.8,67.2,194.2,70.8,196z"/>
		<path class="st0" d="M190.6,45.3c0,50.1,0,100.2,0,150.7c-19.6,0-39.2,0-58.9,0c3.8-1.7,4.4-4.1,2.8-7.9c-4-9.3-10.3-16.1-20-19.6
			c-1.2-0.4-2.8-2-2.9-3.1c-0.5-9.8-0.7-19.6-0.8-29.4c0-1.4,0.4-2.9,1.1-4.2c2.2-4.1,4.1-8.8,7.3-12c3.3-3.3,8-5.1,12-7.6
			c0.7-0.4,1.3-1,1.9-1.6c3.4-4,6.7-8.1,9.3-11.2c5.2,0.6,9.8,1.8,14.2,1.4c5.6-0.5,6.6-4.7,3.9-9.5c-1.4-2.5-1.8-6.5-0.8-9.1
			c1.2-3,4.1-5.7,6.9-7.5C177.9,67.6,186.4,58.2,190.6,45.3z"/>
		<path fill="current" d="M190.6,45.3c-4.2,12.9-12.7,22.2-24,29.4c-2.8,1.8-5.7,4.5-6.9,7.5c-1,2.6-0.6,6.6,0.8,9.1c2.7,4.8,1.8,9-3.9,9.5
			c-4.4,0.4-9-0.8-14.2-1.4c-2.6,3.1-5.9,7.1-9.3,11.2c-0.5,0.6-1.2,1.2-1.9,1.6c-4.1,2.5-8.8,4.3-12,7.6c-3.2,3.2-5,7.9-7.3,12
			c-0.7,1.2-1.1,2.8-1.1,4.2c0.1,9.8,0.3,19.6,0.8,29.4c0.1,1.1,1.7,2.6,2.9,3.1c9.7,3.5,15.9,10.3,20,19.6c1.7,3.8,1,6.3-2.8,7.9
			c-20.3,0-40.6,0-60.9,0c-3.6-1.8-4.2-4.2-2.5-8c4-9.3,10.3-16,20-19.6c1.2-0.4,2.7-2,2.8-3.2c0.4-9.8,0.7-19.6,0.7-29.4
			c0-1.8-1.5-3.7-2.5-5.4c-1-1.7-3.1-3-3.4-4.8c-1.1-5.5-5.5-7.3-9.4-10.2c-6.3-4.6-11.5-10.7-17.2-16.2c-3.3,0.5-7.5,1.8-11.7,1.6
			c-2.4-0.1-5.1-2.1-6.7-4.1c-0.7-0.9,0.8-4,2-5.7c2.7-4,1.9-7.8-0.9-10.9c-2.6-2.9-5.9-5.4-9.1-7.6c-7.8-5.4-14.2-12.1-18.1-20.8
			C7,34.5,18.1,18.7,37,20.2c3.9,0.3,7.8,1.2,11.7,1.9c0.1-0.2,0.4-0.5,0.4-0.7c1.4-9.8,1.5-9.8,11.7-10.9c27-2.9,54-3,81,0
			c1.5,0.2,2.9,0.5,4.4,0.6c5.1,0.4,7.4,3.2,7.2,8.2c0,1,0.2,1.9,0.2,2.2c7.6,0,15.1-0.9,22.2,0.3c7.7,1.3,12.3,7.3,14.7,14.7
			C190.6,39.3,190.6,42.3,190.6,45.3z M52.6,23.2C52.9,44,53.2,63.9,58,83.5c2.3,9.6,6.6,18.1,14,24.8c20.3,18.4,59,14.6,70.4-17.8
			c3.1-8.8,4.6-18.4,5.7-27.7c1.5-13,1.8-26.1,2.6-39.5C117.6,20.2,85.4,20.1,52.6,23.2z M132.3,192.3c-5-16.1-17-23.6-34.2-22.2
			c-14.3,1.1-25.4,10-27,22.2C91.4,192.3,111.6,192.3,132.3,192.3z M159.2,95.6c-6.1-8.8-5-15.4,3.6-22.1c2.1-1.6,4.4-2.9,6.5-4.5
			c7.3-5.5,13.4-11.9,16.6-20.6c4.7-13.1-2.8-24.4-16.8-24.9c-3.7-0.1-7.6,0.7-11.3,1.3c-3.9,0.6-5.2,2.9-3.6,7
			c2.2-0.3,4.3-0.8,6.4-0.9c5.8-0.4,11.5-0.2,15.2,5.3c3.7,5.6,4.4,11.8,0.8,17.4c-2.8,4.3-6.8,8-10.8,11.3c-4,3.2-8.7,5.4-13,8.2
			c-1.2,0.8-2.5,2-2.9,3.2c-1.8,6.3-3.3,12.7-4.9,19.1C151.2,99,155.1,99.1,159.2,95.6z M48.9,31.4c1.3-4.4-0.8-6.2-4.4-6.8
			c-2.6-0.5-5.2-1.1-7.8-1.2C29.1,23,22.3,25.1,18,31.7c-4.3,6.7-3,13.7,0.4,20.3c1.3,2.6,2.9,5.3,5,7.3c4.8,4.5,9.7,9,15,12.9
			c9.7,7.3,11.2,13.3,5.3,23.4c4.3,3.6,9.4,3.2,14.5-1.1c-0.3-0.8-0.7-1.5-0.8-2.3C55.5,78.4,48.4,69,35.3,63.4
			c-5.7-2.4-9.2-8-10.8-14.3c-2.3-9,3.1-17.4,12.3-18.3C40.8,30.5,44.7,31.2,48.9,31.4z M151.2,69.7c5.1-3.1,10.8-5.7,15.4-9.6
			c3.6-3.1,6.6-7.5,8.4-11.9c2.3-5.7-1.8-13-7.1-13.7c-4-0.5-8.2-0.1-12.3,0.4c-1,0.1-2.6,2.1-2.6,3.3
			C152.2,48.6,151.8,59,151.2,69.7z M49.4,35c-3.6-0.3-7.4-1-11.2-1c-6.5,0.1-9.2,2.7-10.6,9c-1.2,5.6,1,10.5,5,13.8
			c5.8,4.8,12.3,8.7,19.1,13.4C50.9,58.1,50.2,46.9,49.4,35z M149.9,18.7c0.7-2.6-0.6-4.2-4-4.5c-13.7-1-27.5-2.9-41.2-2.8
			c-16.1,0.1-32.1,1.8-48.2,2.9c-3.5,0.2-4.5,2-3.5,4.4C85.6,18.7,117.6,18.7,149.9,18.7z M107.6,166.8c0-11,0-21.8,0-32.3
			c-4.5,0-8.4,0-12.5,0c0,10.9,0,21.6,0,32.3C99.4,166.8,103.7,166.8,107.6,166.8z M115,121.7c-9,0-18.1,0-27.1,0
			c1.7,6.3,6,9.7,13.3,9.7C108.7,131.5,113,128.2,115,121.7z"/>
		<path class="st0" d="M52.6,23.2c32.8-3.1,65.1-3,98.2,0c-0.8,13.5-1.2,26.6-2.6,39.5c-1.1,9.3-2.6,18.9-5.7,27.7
			C131,122.9,92.3,126.7,72,108.3c-7.4-6.7-11.7-15.3-14-24.8C53.2,63.9,52.9,44,52.6,23.2z"/>
		<path class="st0" d="M132.3,192.3c-20.7,0-40.9,0-61.2,0c1.7-12.2,12.7-21.1,27-22.2C115.2,168.7,127.2,176.2,132.3,192.3z"/>
		<path class="st0" d="M159.2,95.6c-4.1,3.5-8,3.4-14.3-0.4c1.6-6.4,3.1-12.8,4.9-19.1c0.4-1.3,1.7-2.5,2.9-3.2c4.3-2.8,9-5,13-8.2
			c4-3.3,8-7,10.8-11.3c3.6-5.5,3-11.8-0.8-17.4c-3.7-5.5-9.4-5.6-15.2-5.3c-2.1,0.1-4.2,0.6-6.4,0.9c-1.6-4.1-0.3-6.3,3.6-7
			c3.7-0.6,7.6-1.5,11.3-1.3c14,0.6,21.6,11.8,16.8,24.9c-3.1,8.7-9.3,15.2-16.6,20.6c-2.1,1.6-4.5,2.9-6.5,4.5
			C154.1,80.2,153.1,86.8,159.2,95.6z"/>
		<path class="st0" d="M48.9,31.4c-4.2-0.2-8.2-0.8-12-0.5c-9.2,0.9-14.7,9.3-12.3,18.3c1.6,6.3,5.1,11.8,10.8,14.3
			c13.1,5.6,20.2,15,22.2,28.8c0.1,0.8,0.5,1.6,0.8,2.3c-5.1,4.3-10.2,4.7-14.5,1.1c6-10.1,4.4-16.1-5.3-23.4
			c-5.3-3.9-10.2-8.4-15-12.9c-2.1-2-3.7-4.7-5-7.3c-3.4-6.7-4.7-13.7-0.4-20.3c4.3-6.6,11-8.7,18.6-8.4c2.6,0.1,5.2,0.7,7.8,1.2
			C48.1,25.2,50.2,26.9,48.9,31.4z"/>
		<path class="st0" d="M151.2,69.7c0.5-10.7,1-21,1.7-31.4c0.1-1.2,1.6-3.2,2.6-3.3c4.1-0.5,8.3-0.9,12.3-0.4
			c5.4,0.7,9.5,8,7.1,13.7c-1.8,4.4-4.8,8.8-8.4,11.9C162.1,64,156.4,66.5,151.2,69.7z"/>
		<path class="st0" d="M49.4,35c0.8,11.8,1.5,23,2.3,35.3c-6.8-4.7-13.3-8.6-19.1-13.4c-4-3.3-6.2-8.2-5-13.8
			c1.4-6.3,4.2-8.9,10.6-9C42,34,45.7,34.7,49.4,35z"/>
		<path class="st0" d="M149.9,18.7c-32.3,0-64.3,0-96.9,0c-1-2.3,0-4.1,3.5-4.4c16.1-1.1,32.1-2.8,48.2-2.9
			c13.7-0.1,27.5,1.8,41.2,2.8C149.3,14.5,150.6,16.1,149.9,18.7z"/>
		<path class="st0" d="M107.6,166.8c-4,0-8.2,0-12.5,0c0-10.8,0-21.4,0-32.3c4.1,0,8,0,12.5,0C107.6,145,107.6,155.8,107.6,166.8z"
			/>
		<path class="st0" d="M115,121.7c-1.9,6.6-6.3,9.8-13.8,9.7c-7.3-0.1-11.7-3.4-13.3-9.7C96.8,121.7,106,121.7,115,121.7z"/>
	</g>
</g>
</svg>
