<?xml version="1.0" encoding="utf-8"?>
<!-- Generator: Adobe Illustrator 23.0.0, SVG Export Plug-In . SVG Version: 6.00 Build 0)  -->
<svg version="1.1" id="Layer_1" xmlns="http://www.w3.org/2000/svg" xmlns:xlink="http://www.w3.org/1999/xlink" x="0px" y="0px"
	 viewBox="0 0 200 200" style="enable-background:new 0 0 200 200;" xml:space="preserve">
<style type="text/css">
	.st0{fill:#FFFFFF;}
	.st1{font-family:'Barrio';}
	.st2{font-size:130.6058px;}
</style>
<g>
	<g>
		<path fill="current" d="M189,171c0,1,0,2,0,3c-2.8,1.4-5.5,3.3-8.5,4.1c-3.3,0.9-6.9,0.8-10.3,1.3c-21.7,3-43.4,5.9-65.4,5.6
			c-6.9-0.1-13.9,0.6-20.8,1c-7,0-14,0-21,0c-11.8,0.2-18.1-5.2-20.2-17.2C36.7,134.1,22.1,101.8,13,68c0-0.7,0-1.3,0-2
			c1.1-8.2,2.1-16.5,3.2-24.7c0.9-6.7,1.8-13.4,2.6-19.6c7.7-0.7,14.6-1.6,21.5-1.8c37.6-1.3,75.3-2.4,112.9-3.8
			c4-0.1,5.3,1.2,5.8,4.8c1.1,7.9,1.8,16,3.7,23.7c6,23.7,12.6,47.2,18.8,70.8c2.2,8.4,4.3,16.9,6.6,25.7c-3,0.8-5.5,1.5-7.7,2.1
			C183.3,152.6,186.2,161.8,189,171z M23,23.9c0.1,2,0,2.5,0.2,2.9c9.5,37.4,19,74.8,28.3,112.2c0.9,3.7,2.7,4.5,6,4.1
			c7.5-0.8,14.9-2.1,22.4-2.1c11.5,0,22.9,1.7,34.4,1.5c17.6-0.2,35.2-1.4,52.8-2.2c5.6-0.3,11.2-0.8,16.9-1.2
			c-7.9-40.5-24.3-78.3-28.5-120.1C111.1,20.7,67.1,22.3,23,23.9z M21.2,33.1c-0.3,0-0.5,0-0.8,0c-0.4,2.6-0.6,5.2-1.1,7.8
			c-3.3,17.7-2.3,34.8,4.1,51.9c6.9,18.5,12.4,37.5,18.1,56.5c2.6,8.5,4.2,17.2,6.2,25.8c0.7-0.1,1.3-0.2,2-0.3
			c-0.5-12,0.5-24.3-1.9-35.9c-5.2-24.5-12.2-48.6-18.4-72.9C26.6,55,23.9,44,21.2,33.1z M174.3,142.2c1.5,4.1,4.3,8.2,3.2,9.6
			c-3,4.3,0,6.8,1.3,9.9c3.1,7.5,2.2,9.7-5.9,10.6c-17,1.8-34.1,3.7-51.2,4.5c-20.6,1-41.3,0.8-61.9,1.3c-1.6,0-3.2,1.2-4.8,1.8
			c0.1,0.5,0.3,0.9,0.4,1.4c1.6,0.2,3.2,0.5,4.9,0.5c40.7,0.7,81.2-0.6,121.5-6.9c2.6-0.4,3.7-1.6,3.1-3.9
			c-2.6-9.1-5.3-18.1-8.1-27.1C176.7,143.5,175.9,143.2,174.3,142.2z M172.9,157.3c0-0.8-0.1-1.7-0.1-2.5c-36.9,5.6-74,2.7-111,2.8
			c-0.6,0.8-1.1,1.6-1.7,2.4c1.1,0.3,2.2,0.7,3.4,0.8C100.2,164.6,136.7,163.7,172.9,157.3z M54.8,146.9
			c5.1,3.8,107.9,2.7,117.8-1.4c-1.8-0.8-3-1.8-4.2-1.8c-4.2,0.1-8.3,0.3-12.4,0.8c-16.1,2-32.2,3.2-48.3,0.6
			C90.1,142.4,72.7,144.9,54.8,146.9z M174.2,163.1c-0.1-0.6-0.2-1.2-0.4-1.9c-1.5,0.1-3,0.1-4.6,0.3c-19.4,1.6-38.8,3.9-58.3,4.5
			c-14.9,0.5-29.9-1.1-44.9-1.6c-1.2,0-2.4,0.9-3.6,1.4c1,0.7,2,2,3.1,2.1c35,2.9,69.9,2.1,104.6-3.6
			C171.6,164,172.8,163.5,174.2,163.1z M59.4,152.6c8.7,5.1,108.4,2.7,113.4-1.7C135.7,151.5,97.8,152.1,59.4,152.6z M60.2,174.7
			c1.1,0.1,2.1,0.2,3,0.2c21.5-0.3,43-0.1,64.4-1.1c15.3-0.7,30.5-3,45.7-4.8c1.4-0.2,2.7-1.3,4-2c-0.2-0.4-0.5-0.7-0.7-1.1
			c-2.1,0.6-4.1,1.4-6.2,1.7c-13.7,1.6-27.4,3.9-41.2,4.2c-21,0.5-41.9-0.3-62.9-0.6C63.6,171.1,60.4,170.2,60.2,174.7z M52.4,178
			c8.9-9.5,8.7-22.8,0-27.6C52.4,159.4,52.4,168.4,52.4,178z"/>
		<path class="st0" d="M189,171c-2.8-9.2-5.7-18.4-8.6-27.8c2.2-0.6,4.7-1.3,7.7-2.1c-2.2-8.8-4.3-17.3-6.6-25.7
			c-6.3-23.6-12.8-47.1-18.8-70.8c-2-7.7-2.6-15.8-3.7-23.7c-0.5-3.6-1.8-4.9-5.8-4.8c-37.6,1.4-75.3,2.5-112.9,3.8
			c-6.9,0.2-13.9,1.1-21.5,1.8c-0.8,6.2-1.7,12.9-2.6,19.6C15.1,49.5,14.1,57.8,13,66c0-17,0-34,0-51c58.7,0,117.3,0,176,0
			C189,67,189,119,189,171z"/>
		<path class="st0" d="M13,68c9.1,33.8,23.7,66.1,29.8,100.8c2.1,12,8.4,17.5,20.2,17.2c-16.6,0-33.2,0-50,0
			C13,146.7,13,107.3,13,68z"/>
		<path class="st0" d="M84,186c6.9-0.3,13.9-1,20.8-1c22,0.3,43.7-2.6,65.4-5.6c3.4-0.5,7-0.4,10.3-1.3c3-0.8,5.6-2.7,8.5-4.1
			c0,4,0,8,0,12C154,186,119,186,84,186z"/>
		<path class="st0" d="M23,23.9c44.1-1.6,88.1-3.2,132.5-4.9c4.2,41.7,20.6,79.5,28.5,120.1c-5.7,0.4-11.3,1-16.9,1.2
			c-17.6,0.8-35.2,2-52.8,2.2c-11.4,0.2-22.9-1.5-34.4-1.5c-7.5,0-14.9,1.3-22.4,2.1c-3.3,0.4-5.1-0.5-6-4.1
			c-9.3-37.4-18.9-74.8-28.3-112.2C23,26.4,23.1,25.9,23,23.9z"/>
		<path class="st0" d="M21.2,33.1C23.9,44,26.6,55,29.4,65.9c6.2,24.3,13.2,48.4,18.4,72.9c2.4,11.6,1.4,23.9,1.9,35.9
			c-0.7,0.1-1.3,0.2-2,0.3c-2-8.6-3.7-17.4-6.2-25.8c-5.7-18.9-11.2-38-18.1-56.5c-6.4-17.1-7.3-34.2-4.1-51.9
			c0.5-2.6,0.7-5.2,1.1-7.8C20.7,33.1,21,33.1,21.2,33.1z"/>
		<path class="st0" d="M174.3,142.2c1.5,1.1,2.3,1.3,2.5,1.7c2.8,9,5.5,18.1,8.1,27.1c0.7,2.3-0.4,3.5-3.1,3.9
			c-40.3,6.3-80.9,7.6-121.5,6.9c-1.6,0-3.2-0.3-4.9-0.5c-0.1-0.5-0.3-0.9-0.4-1.4c1.6-0.6,3.2-1.8,4.8-1.8
			c20.6-0.5,41.3-0.4,61.9-1.3c17.1-0.8,34.2-2.6,51.2-4.5c8.1-0.9,9-3.2,5.9-10.6c-1.3-3.1-4.3-5.6-1.3-9.9
			C178.6,150.4,175.8,146.3,174.3,142.2z"/>
		<path class="st0" d="M172.9,157.3c-36.3,6.4-72.7,7.3-109.4,3.6c-1.1-0.1-2.2-0.6-3.4-0.8c0.6-0.8,1.1-1.6,1.7-2.4
			c37-0.2,74.1,2.8,111-2.8C172.8,155.7,172.9,156.5,172.9,157.3z"/>
		<path class="st0" d="M54.8,146.9c17.9-2,35.3-4.5,52.9-1.7c16.1,2.5,32.2,1.4,48.3-0.6c4.1-0.5,8.3-0.7,12.4-0.8
			c1.2,0,2.4,1,4.2,1.8C162.7,149.5,59.9,150.7,54.8,146.9z"/>
		<path class="st0" d="M174.2,163.1c-1.3,0.4-2.6,1-3.9,1.2c-34.7,5.7-69.6,6.5-104.6,3.6c-1.1-0.1-2.1-1.4-3.1-2.1
			c1.2-0.5,2.4-1.4,3.6-1.4c15,0.5,30,2.1,44.9,1.6c19.4-0.7,38.8-3,58.3-4.5c1.5-0.1,3-0.2,4.6-0.3
			C173.9,161.8,174,162.5,174.2,163.1z"/>
		<path class="st0" d="M59.4,152.6c38.4-0.6,76.3-1.2,113.4-1.7C167.8,155.3,68,157.7,59.4,152.6z"/>
		<path class="st0" d="M60.2,174.7c0.2-4.6,3.4-3.6,6.1-3.6c21,0.3,42,1.2,62.9,0.6c13.8-0.3,27.5-2.7,41.2-4.2
			c2.1-0.2,4.1-1.1,6.2-1.7c0.2,0.4,0.5,0.7,0.7,1.1c-1.3,0.7-2.6,1.8-4,2c-15.2,1.7-30.4,4-45.7,4.8c-21.4,1-42.9,0.8-64.4,1.1
			C62.3,174.9,61.3,174.8,60.2,174.7z"/>
		<path class="st0" d="M52.4,178c0-9.6,0-18.6,0-27.6C61.1,155.2,61.4,168.5,52.4,178z"/>
	</g>
</g>
<text transform="matrix(0.9962 -8.694709e-02 8.694709e-02 0.9962 70.3347 128.2042)" class="st1 st2">1</text>
</svg>
